<?xml version="1.0" encoding="utf-8"?>
<!-- Generator: Adobe Illustrator 26.3.1, SVG Export Plug-In . SVG Version: 6.00 Build 0)  -->
<svg version="1.1" id="Layer_1" xmlns="http://www.w3.org/2000/svg" xmlns:xlink="http://www.w3.org/1999/xlink" x="0px" y="0px"
	 viewBox="0 0 792 612" style="enable-background:new 0 0 792 612;" xml:space="preserve">
<style type="text/css">
	.st0{fill:#0556A3;}
	.st1{fill:#FED402;}
</style>
<g>
	<g>
		<g>
			<g>
				<g>
					<path class="st0" d="M141.08,240.61c-3.31,12.41,1.75,25.24,12.7,31.32c-10.66-9.16-5.71-28.6-5.71-28.6l34.44,6.93
						c4.39-3.57,14.06-6.82,17.7-7.96c-9.02-3.28-23.99-6.86-31.2-7.25c4.13,2.27,10.61,7.01,14.15,10.1
						c-10.91-2.44-21.84-4.83-32.78-7.06C145.94,237.19,142.32,235.97,141.08,240.61z"/>
					<path class="st0" d="M197.69,269.89c0,0,5.23-1.03,6.98,0.08c1.74,1.11,2.46,4.68,8.01,4.68c3.43,0,7.35-0.15,9.97-1
						c0.69,0.96,2.79,1.92,5.12,3.83c-2.78-4.6-3.18-8.7,2.42-11.23c-10.62,1.82-11.02-0.48-19.9-0.95
						C201.42,264.82,197.69,269.89,197.69,269.89z"/>
					<path class="st0" d="M163.07,275.89c2.69-4.43,6.03-9.06,10.09-13.9c1-1.28,1.69-1.98,1.69-1.98l-18.88-6.4
						C155.05,260.95,157.62,270.78,163.07,275.89z"/>
					<path class="st0" d="M210.61,242.02c2.15,0.69,4.29,1.49,6.45,2.41c-0.52-5.51-1.82-12.21-2.53-15.61
						C213.53,232.59,212.01,237.74,210.61,242.02z"/>
				</g>
			</g>
		</g>
		<g>
			<path class="st1" d="M124.25,201.27v-4.3h-15.78h-4.3v4.3v11.48h-3.59v-15.78h-4.3v15.78h-3.59v-11.48v-4.3h-4.3H72.6v4.3h15.78
				v3.59H76.72v4.3h11.66v3.59H72.6v20.09h15.78v3.59H76.72v4.3h11.66v3.59H72.6v4.3h15.78h4.3v-4.3v-11.48h3.59v15.78h4.3v-15.78
				h3.59v11.48v4.3h4.3h15.78v-4.3h-15.78v-3.59h11.66v-4.3h-11.66v-3.59h15.78v-20.09h-15.78v-3.59h11.66v-4.3h-11.66v-3.59H124.25
				z M104.17,217.06v3.59H92.69v-3.59H104.17z M80.49,228.54H76.9v-11.48h3.59V228.54z M84.79,228.54v-11.48h3.59v11.48H84.79z
				 M100.58,228.54h-7.89v-3.59h11.48v3.59H100.58z M116.36,217.06h3.59v11.48h-3.59V217.06z M112.06,217.06v11.48h-3.59v-11.48
				H112.06z"/>
			<g>
				<path class="st1" d="M97.99,272.39c-5.04,0-9.15,4.1-9.15,9.15c0,5.04,4.1,9.15,9.15,9.15c5.04,0,9.15-4.1,9.15-9.15
					C107.14,276.5,103.03,272.39,97.99,272.39z M102.57,281.54c0,2.53-2.06,4.58-4.58,4.58s-4.58-2.06-4.58-4.58
					c0-2.53,2.06-4.58,4.58-4.58S102.57,279.02,102.57,281.54z"/>
				<path class="st1" d="M97.99,263.76c-9.81,0-17.79,7.98-17.79,17.79c0,9.81,7.98,17.79,17.79,17.79s17.79-7.98,17.79-17.79
					C115.77,271.73,107.79,263.76,97.99,263.76z M111.1,281.54c0,7.23-5.88,13.12-13.12,13.12s-13.12-5.88-13.12-13.12
					c0-7.23,5.88-13.12,13.12-13.12S111.1,274.31,111.1,281.54z"/>
				<path class="st1" d="M97.99,255.4c-14.41,0-26.14,11.73-26.14,26.14c0,14.41,11.73,26.14,26.14,26.14s26.14-11.73,26.14-26.14
					C124.13,267.13,112.4,255.4,97.99,255.4z M119.56,281.54c0,11.89-9.68,21.57-21.57,21.57s-21.57-9.68-21.57-21.57
					c0-11.89,9.68-21.57,21.57-21.57S119.56,269.65,119.56,281.54z"/>
			</g>
			<g>
				<path class="st1" d="M109.22,313.67c-4.23,0-8.06,3.11-10.79,8.08c-2.73-4.98-6.56-8.08-10.79-8.08
					c-8.31,0-15.04,11.91-15.04,26.59c0,14.68,6.73,26.59,15.04,26.59c4.24,0,8.05-3.1,10.79-8.07c2.74,4.97,6.55,8.07,10.79,8.07
					c8.31,0,15.04-11.91,15.04-26.59C124.25,325.58,117.52,313.67,109.22,313.67z M92.65,356.01c0.69,0.05,1.19,0.57,1.13,1.17
					c-0.12,1.02-0.7,2.59-2.87,4.17c-3.15,2.31-5.2,1.34-6.19,0.55c-2.33-1.87-5.39-5.67-5.15-9.05c0.13-2.09,3.52-7.67,5.4-10.63
					c0.55-0.86,0.55-1.89,0-2.76c-1.87-2.94-5.26-8.54-5.4-10.63c-0.24-3.39,2.82-7.19,5.15-9.05c0.99-0.79,3.04-1.76,6.19,0.55
					c2.16,1.58,2.74,3.16,2.87,4.17c0.06,0.59-0.43,1.11-1.13,1.17c-1.65,0.12-5.55,0.04-5.6,3.25c-0.04,2.59,4.43,5.99,6.21,8.55
					c1.02,1.45,1.16,2.71,1.14,3.37c0.02,0.66-0.12,1.92-1.14,3.37c-1.78,2.56-6.26,5.96-6.21,8.55
					C87.1,355.98,91,355.89,92.65,356.01z M112.29,363.34c-1.06,0.84-3.25,1.88-6.62-0.59c-2.31-1.69-2.93-3.37-3.07-4.46
					c-0.07-0.63,0.46-1.19,1.21-1.25c1.76-0.13,5.93-0.04,5.99-3.48c0.04-2.77-4.74-6.4-6.64-9.13c-1.08-1.55-1.24-2.89-1.22-3.6
					c-0.02-0.71,0.13-2.05,1.22-3.6c1.9-2.73,6.68-6.37,6.64-9.13c-0.06-3.44-4.23-3.34-5.99-3.48c-0.74-0.06-1.27-0.61-1.21-1.25
					c0.13-1.09,0.75-2.77,3.07-4.46c3.36-2.47,5.55-1.43,6.62-0.59c2.49,1.99,5.75,6.06,5.5,9.67c-0.14,2.23-3.76,8.21-5.77,11.35
					c-0.59,0.93-0.59,2.03,0,2.95c2,3.16,5.62,9.13,5.77,11.35C118.04,357.29,114.78,361.35,112.29,363.34z"/>
			</g>
		</g>
		<path class="st0" d="M161.13,278.73c-17.23,7.12-32.24,24.11-32.39,42.95c2.34-1.68,5.29-3.55,8.99-5.6
			c-4.21,13.02,2.65,25.44,7.29,29.15c-2.47-10.76-0.32-20.17,4.09-24.42c1.65-1.29,7.88-7.82,20.82,11.29
			c1.39-6.94-4.18-14.8-5.71-17.33C157.58,303.79,147.17,302.79,161.13,278.73z"/>
		<path class="st0" d="M131.95,196.97v33.05c0,0,17.6-6.52,22.21-8.4c2.06-0.84,8.61-3.81,17.64-1.41
			c8.13,2.17,17.65,6.12,25.2,9.55c-1.26-1.64-2.51-3.19-3.72-4.6c-4.85-5.62-7.31-7.54-13.88-8.94c-7.3-1.55-18.72-3.34-18.72-3.34
			s8.38-1.67,14.37-2.65c8.36-1.37,15.74-1.97,21.68,0.24c10.22,3.8,31.75,15.72,31.75,15.72l-1,17.25
			c1.83-1.89,4.65-4.25,8.73-6.41c0,0-1.54,3.75-2.29,9.66c5.75,4.13,16,11.51,18.67,13.66c3.78,3.03,4.55,6.42,2.8,6.25
			c-1.75-0.17-10.33-2.84-10.33-2.84s24.33,16.93,24.51,18.73c0.18,1.8-0.96,3.01-8.32,2.92c-7.35-0.09-12.34-1.72-15.23-0.26
			c-2.89,1.46-7.44-0.09-7.44-0.09s1.99,4.25,9.37,6.95c7.38,2.7,12.36,8.09,9.44,15.84c-1.46,4.69-20.92,10.78-34.85,7.82
			c-20.81-4.43-17.72-30.2,4.82-28.71c-19.21-11.42-31.6,13.08-47.54,2.02c0,0,1.86,7.86,9.19,14.11
			c-9.49-0.91-21.51-4.01-23.44-13.78c-0.52-2.63-0.64-5.16-0.47-7.57c-1.95,8.03-1.67,15.39,1.14,21.51
			c6.17,13.46,24.03,23.75,28.81,36.83c2.33-6.11,1.08-10.35-2.36-20.47c28.43,10.76,41.9,28.79,57.86,52.85
			c4.61-16.28,15.93-24.12,15.93-24.12s-1.6,8.9,0.8,18.84c4.45,18.46-14.24,37.16-25.84,47.8l48.32,0.27l0.19-218.28H131.95z
			 M261.94,341.42c0,0-2.98-4.81-10.01-3.45c-7.03,1.36-9.48,5.33-9.48,5.33c-6.88-3.72-18.04-16.06-17.9-24.37
			c10.4,4.88,17.9,4.23,28.17-1.6c5.75-3.26,7.79-2.86,10.18-1.85c0,0,7.88,6.9,8.2,13.6C271.43,335.78,261.94,341.42,261.94,341.42
			z M272.68,307.32c-2.91,5.17-8.98,6.31-11.49-0.06c-3.13-7.93,6.2-14.38,10.97-19.68c-0.1,3.53,0.89,6.24,1.57,8.91
			C274.85,300.87,274.19,304.64,272.68,307.32z"/>
		<g>
			<path class="st0" d="M81.3,390.59v-15.77h8.86v2.6h-5.62v3.54h4.83v2.6h-4.83v4.42h5.8v2.6H81.3z"/>
			<path class="st0" d="M92.09,388.21l1.51-2.3c1.18,1.52,2.45,2.27,3.82,2.27c0.7,0,1.28-0.2,1.75-0.6c0.47-0.4,0.71-0.9,0.71-1.5
				c0-0.54-0.21-0.96-0.63-1.27c-0.36-0.25-1.11-0.57-2.22-0.98c-0.84-0.31-1.43-0.55-1.77-0.72c-0.33-0.17-0.68-0.41-1.02-0.7
				c-0.9-0.79-1.35-1.81-1.35-3.08c0-1.4,0.49-2.55,1.49-3.45c0.99-0.9,2.26-1.35,3.8-1.35c1.92,0,3.48,0.72,4.68,2.14l-1.71,2.08
				c-0.9-1.08-1.87-1.62-2.9-1.62c-0.58,0-1.07,0.17-1.46,0.5c-0.39,0.34-0.59,0.76-0.59,1.29c0,0.45,0.17,0.83,0.5,1.14
				c0.2,0.19,0.42,0.34,0.66,0.46c0.23,0.12,0.71,0.3,1.43,0.56c0.72,0.26,1.29,0.48,1.72,0.69c0.42,0.2,0.8,0.44,1.14,0.7
				c0.99,0.79,1.49,1.86,1.49,3.23c0,1.53-0.53,2.78-1.58,3.76c-1.05,0.97-2.41,1.46-4.07,1.46
				C95.25,390.92,93.46,390.01,92.09,388.21z"/>
			<path class="st0" d="M103.83,377.68v-2.86h10.54v2.86h-3.67v12.91h-3.24v-12.91H103.83z"/>
			<path class="st0" d="M114.09,389.13c0-0.53,0.18-0.96,0.53-1.31c0.35-0.35,0.79-0.52,1.31-0.52c0.53,0,0.96,0.17,1.31,0.52
				c0.35,0.35,0.53,0.79,0.53,1.31c0,0.52-0.18,0.97-0.54,1.32c-0.36,0.36-0.79,0.54-1.3,0.54c-0.51,0-0.94-0.18-1.3-0.54
				C114.27,390.09,114.09,389.65,114.09,389.13z"/>
		</g>
		<g>
			<path class="st0" d="M75.65,411.11v-2.6h2.32v-10.56h-2.32v-2.6h5.47v13.17h2.32v2.6H75.65z"/>
			<path class="st0" d="M91.01,405.31c-0.32,0.1-0.57,0.17-0.76,0.21c-0.18,0.04-0.42,0.05-0.71,0.05c-1.39,0-2.55-0.47-3.5-1.42
				c-0.95-0.95-1.42-2.13-1.42-3.54c0-1.63,0.56-2.98,1.68-4.05c1.12-1.06,2.54-1.6,4.26-1.6c1.65,0,3.01,0.5,4.08,1.51
				c1.07,1.01,1.61,2.29,1.61,3.85c0,1.3-0.4,2.58-1.2,3.85l-1.18,1.73l-4.13,5.79l-2.36-1.64L91.01,405.31z M90.48,397.74
				c-0.82,0-1.48,0.26-2,0.78c-0.52,0.52-0.78,1.19-0.78,2c0,0.76,0.26,1.4,0.79,1.92s1.17,0.79,1.95,0.79
				c0.79,0,1.44-0.26,1.95-0.79c0.51-0.53,0.77-1.18,0.77-1.97c0-0.8-0.25-1.46-0.74-1.97C91.91,398,91.27,397.74,90.48,397.74z"/>
			<path class="st0" d="M103.37,401.13c0.34-0.09,0.6-0.15,0.81-0.17s0.43-0.04,0.68-0.04c1.41,0,2.58,0.47,3.5,1.4
				s1.38,2.13,1.38,3.59c0,1.6-0.56,2.94-1.68,4c-1.12,1.06-2.53,1.6-4.22,1.6c-1.65,0-3.02-0.52-4.11-1.55
				c-1.09-1.04-1.64-2.33-1.64-3.89c0-1.23,0.41-2.49,1.25-3.79l1.36-1.93l4-5.58l2.36,1.66L103.37,401.13z M101.18,406.03v0.11
				c0,0.76,0.26,1.38,0.77,1.86c0.51,0.48,1.15,0.72,1.92,0.72c0.83,0,1.51-0.26,2.02-0.78c0.52-0.52,0.78-1.19,0.78-2
				c0-0.79-0.26-1.43-0.78-1.94c-0.52-0.5-1.18-0.75-1.98-0.75c-0.79,0-1.44,0.26-1.96,0.78
				C101.44,404.55,101.18,405.22,101.18,406.03z"/>
			<path class="st0" d="M114.5,402.9c-0.38-0.15-0.65-0.27-0.81-0.37c-0.99-0.71-1.49-1.73-1.49-3.06c0-1.31,0.47-2.38,1.42-3.19
				c0.95-0.82,2.2-1.22,3.76-1.22c1.56,0,2.81,0.4,3.76,1.2c0.95,0.8,1.42,1.87,1.42,3.22c0,0.63-0.13,1.21-0.39,1.75
				c-0.26,0.54-0.63,0.98-1.09,1.31c-0.09,0.06-0.23,0.13-0.44,0.22c-0.1,0.04-0.23,0.09-0.37,0.15c0.17,0.07,0.36,0.15,0.56,0.22
				c0.2,0.07,0.39,0.19,0.58,0.35c0.48,0.35,0.86,0.82,1.14,1.41c0.28,0.59,0.41,1.21,0.41,1.87c0,1.4-0.52,2.54-1.55,3.41
				c-1.04,0.88-2.38,1.31-4.02,1.31c-1.63,0-2.98-0.44-4.03-1.31c-1.05-0.87-1.57-2.01-1.57-3.41c0-0.66,0.14-1.27,0.41-1.85
				s0.66-1.05,1.16-1.43C113.6,403.28,113.97,403.09,114.5,402.9z M115.02,406.52v0.13c0,0.64,0.22,1.17,0.67,1.59
				c0.45,0.42,1.01,0.63,1.68,0.63c0.69,0,1.25-0.22,1.69-0.66c0.44-0.44,0.66-1,0.66-1.69c0-0.67-0.22-1.23-0.67-1.68
				c-0.45-0.45-1.01-0.67-1.68-0.67c-0.69,0-1.25,0.22-1.69,0.66C115.24,405.27,115.02,405.83,115.02,406.52z M115.27,399.56v0.13
				c0,0.61,0.2,1.11,0.59,1.49s0.9,0.57,1.53,0.57c0.63,0,1.14-0.2,1.53-0.61c0.39-0.41,0.59-0.93,0.59-1.58
				c0-0.61-0.2-1.11-0.59-1.49c-0.39-0.38-0.9-0.57-1.53-0.57c-0.63,0-1.14,0.19-1.53,0.57
				C115.46,398.45,115.27,398.94,115.27,399.56z"/>
		</g>
		<path class="st0" d="M177.9,360.67c-12.99,20.87-7.07,35.52-0.92,43.34c3.05,3.87,4.91,7.39,4.42,10.82h21.37
			C174.12,389.34,177.08,372.18,177.9,360.67z"/>
		<path class="st0" d="M131.95,375.44v39.39h36.15c-8.91-13-28.3-13.84-26.13-51.77C138.89,366.61,134.95,371.32,131.95,375.44z"/>
	</g>
	<g>
		<g>
			<g>
				<path class="st0" d="M317.13,397.9l2.81-27.04h5.59l-2.36,22.16h8.36l-0.49,4.88H317.13z"/>
				<path class="st0" d="M351.29,390.4h-13.84c0,1.25,0.39,2.25,1.16,3c0.77,0.75,1.76,1.13,2.96,1.13c0.85,0,1.75-0.26,2.7-0.79
					c0.95-0.53,1.79-1.21,2.51-2.06l3.53,2.63l-0.08,0.08c-1.38,1.48-2.76,2.53-4.16,3.15c-1.4,0.63-3.04,0.94-4.91,0.94
					c-2.75,0-4.92-0.76-6.51-2.27c-1.59-1.51-2.38-3.58-2.38-6.21c0-3.02,1.06-5.62,3.17-7.78c2.11-2.16,4.67-3.24,7.67-3.24
					c2.6,0,4.66,0.81,6.17,2.42c1.51,1.61,2.27,3.79,2.27,6.55c0,0.32-0.03,0.71-0.09,1.14C351.4,389.51,351.34,389.95,351.29,390.4
					z M342.63,382.86c-1.15,0-2.14,0.35-2.96,1.05c-0.83,0.7-1.45,1.7-1.88,3h8.55c0-1.28-0.33-2.27-0.99-2.98
					C344.69,383.22,343.78,382.86,342.63,382.86z"/>
				<path class="st0" d="M368.47,382l0.26-2.51h5.4l-1.95,18.41h-5.4l0.26-2.36c-1.33,1.95-3.28,2.92-5.85,2.92
					c-2.25,0-4.06-0.78-5.44-2.33c-1.38-1.55-2.06-3.62-2.06-6.2c0-2.96,0.94-5.51,2.81-7.66c1.88-2.15,4.1-3.23,6.68-3.23
					c1.98,0,3.53,0.64,4.65,1.91C368.01,381.15,368.22,381.5,368.47,382z M364.01,383.5c-1.35,0-2.53,0.52-3.54,1.57
					c-1.01,1.05-1.52,2.34-1.52,3.87v0.45c0,1.39,0.37,2.5,1.11,3.34c0.74,0.84,1.73,1.26,2.98,1.26c1.42,0,2.64-0.57,3.64-1.7
					c1-1.13,1.5-2.54,1.5-4.23c0-1.36-0.38-2.46-1.14-3.3C366.26,383.92,365.26,383.5,364.01,383.5z"/>
				<path class="st0" d="M375.89,397.9l1.95-18.41h5.36l-0.3,3.11c0.87-2.4,2.7-3.6,5.47-3.6c0.35,0,0.64,0.01,0.86,0.04
					c0.22,0.02,0.53,0.09,0.9,0.19l-1.5,5.21c-0.7-0.18-1.33-0.26-1.88-0.26c-1.33,0-2.41,0.46-3.26,1.39
					c-0.43,0.43-0.72,0.85-0.88,1.28c-0.16,0.43-0.31,1.13-0.43,2.1l-0.94,8.96H375.89z"/>
				<path class="st0" d="M389.1,397.9l1.95-18.41h5.36l-0.26,2.7c1.33-2.12,3.35-3.19,6.08-3.19c1.7,0,3.03,0.46,3.99,1.37
					s1.44,2.16,1.44,3.73l-0.11,2.14l-1.24,11.66h-5.4l1.09-10.34l0.11-1.39c0-0.8-0.25-1.45-0.75-1.95
					c-0.5-0.5-1.15-0.75-1.95-0.75c-1.1,0-1.99,0.4-2.66,1.19s-1.07,1.92-1.2,3.4l-1.05,9.85H389.1z"/>
				<path class="st0" d="M428.51,388.79c0-0.9,0.33-1.67,0.99-2.31c0.66-0.64,1.47-0.96,2.42-0.96c0.8,0,1.5,0.31,2.1,0.94
					c0.6,0.63,0.9,1.38,0.9,2.25c0,0.9-0.33,1.67-0.99,2.31c-0.66,0.64-1.47,0.96-2.42,0.96c-0.8,0-1.5-0.31-2.1-0.94
					C428.81,390.42,428.51,389.66,428.51,388.79z"/>
				<path class="st0" d="M455.18,397.9l2.81-27.04h5.59l-2.36,22.16h8.36l-0.49,4.88H455.18z"/>
				<path class="st0" d="M489.34,390.4H475.5c0,1.25,0.39,2.25,1.16,3c0.77,0.75,1.76,1.13,2.96,1.13c0.85,0,1.75-0.26,2.7-0.79
					c0.95-0.53,1.79-1.21,2.51-2.06l3.53,2.63l-0.08,0.08c-1.38,1.48-2.76,2.53-4.16,3.15c-1.4,0.63-3.04,0.94-4.91,0.94
					c-2.75,0-4.92-0.76-6.51-2.27c-1.59-1.51-2.38-3.58-2.38-6.21c0-3.02,1.06-5.62,3.17-7.78c2.11-2.16,4.67-3.24,7.67-3.24
					c2.6,0,4.66,0.81,6.17,2.42c1.51,1.61,2.27,3.79,2.27,6.55c0,0.32-0.03,0.71-0.09,1.14
					C489.45,389.51,489.39,389.95,489.34,390.4z M480.68,382.86c-1.15,0-2.14,0.35-2.96,1.05c-0.83,0.7-1.45,1.7-1.88,3h8.55
					c0-1.28-0.33-2.27-0.99-2.98C482.74,383.22,481.83,382.86,480.68,382.86z"/>
				<path class="st0" d="M506.52,382l0.26-2.51h5.4l-1.95,18.41h-5.4l0.26-2.36c-1.33,1.95-3.28,2.92-5.85,2.92
					c-2.25,0-4.06-0.78-5.44-2.33c-1.38-1.55-2.06-3.62-2.06-6.2c0-2.96,0.94-5.51,2.81-7.66c1.88-2.15,4.1-3.23,6.68-3.23
					c1.98,0,3.53,0.64,4.65,1.91C506.06,381.15,506.27,381.5,506.52,382z M502.06,383.5c-1.35,0-2.53,0.52-3.54,1.57
					c-1.01,1.05-1.52,2.34-1.52,3.87v0.45c0,1.39,0.37,2.5,1.11,3.34c0.74,0.84,1.73,1.26,2.98,1.26c1.42,0,2.64-0.57,3.64-1.7
					c1-1.13,1.5-2.54,1.5-4.23c0-1.36-0.38-2.46-1.14-3.3C504.31,383.92,503.31,383.5,502.06,383.5z"/>
				<path class="st0" d="M529.02,381.89l1.16-11.03h5.4l-2.85,27.04h-5.4l0.26-2.51c-1.12,2.05-3.11,3.08-5.96,3.08
					c-2.3,0-4.13-0.75-5.48-2.25c-1.35-1.5-2.03-3.56-2.03-6.19c0-3.05,0.95-5.65,2.85-7.8c1.9-2.15,4.2-3.23,6.9-3.23
					C526.38,379,528.1,379.96,529.02,381.89z M524.65,383.54c-1.36,0-2.5,0.49-3.43,1.46c-0.93,0.97-1.48,2.25-1.66,3.83v0.64
					c0,1.38,0.36,2.46,1.09,3.26c0.73,0.8,1.71,1.2,2.96,1.2c1.45,0,2.66-0.56,3.64-1.69c0.98-1.12,1.46-2.54,1.46-4.24
					c0-1.35-0.37-2.43-1.11-3.24C526.87,383.95,525.88,383.54,524.65,383.54z"/>
				<path class="st0" d="M554.97,388.79c0-0.9,0.33-1.67,0.99-2.31c0.66-0.64,1.47-0.96,2.42-0.96c0.8,0,1.5,0.31,2.1,0.94
					s0.9,1.38,0.9,2.25c0,0.9-0.33,1.67-0.99,2.31c-0.66,0.64-1.47,0.96-2.42,0.96c-0.8,0-1.5-0.31-2.1-0.94
					C555.27,390.42,554.97,389.66,554.97,388.79z"/>
				<path class="st0" d="M606.35,373.45l-3.22,4.09l-1.01-0.75c-1.32-0.82-2.81-1.24-4.46-1.24c-2.73,0-5.03,0.97-6.92,2.9
					c-1.89,1.93-2.83,4.27-2.83,7.02c0,2.3,0.74,4.19,2.21,5.69c1.48,1.5,3.36,2.25,5.66,2.25c0.55,0,1.13-0.06,1.74-0.18
					c0.61-0.12,1.21-0.29,1.78-0.52c0.7-0.29,1.49-0.76,2.36-1.4l2.29,4.09c-0.78,0.53-1.38,0.92-1.8,1.18
					c-0.43,0.26-0.9,0.49-1.43,0.69c-2,0.8-4.05,1.2-6.15,1.2c-3.73,0-6.71-1.14-8.96-3.41c-2.25-2.27-3.38-5.28-3.38-9.03
					c0-4.29,1.51-7.98,4.54-11.05c3.03-3.07,6.66-4.61,10.91-4.61c0.92,0,1.79,0.07,2.59,0.22c0.8,0.15,1.58,0.36,2.33,0.64
					c0.75,0.28,1.34,0.54,1.76,0.81C604.79,372.31,605.45,372.78,606.35,373.45z"/>
				<path class="st0" d="M606.28,388.73c0.32-2.84,1.52-5.18,3.58-7c2.06-1.82,4.53-2.73,7.41-2.73c2.68,0,4.84,0.79,6.51,2.38
					s2.49,3.66,2.49,6.23c0,3.07-1.07,5.65-3.2,7.73c-2.13,2.08-4.75,3.12-7.84,3.12c-2.67,0-4.83-0.8-6.48-2.39
					c-1.65-1.6-2.47-3.68-2.47-6.25V388.73z M616.76,383.54c-1.38,0-2.58,0.49-3.61,1.46c-1.03,0.97-1.63,2.22-1.81,3.74v0.64
					c0,1.32,0.4,2.4,1.2,3.25c0.8,0.85,1.85,1.27,3.15,1.27c1.52,0,2.81-0.56,3.86-1.68s1.58-2.52,1.58-4.19
					c0-1.32-0.41-2.4-1.22-3.23C619.09,383.96,618.04,383.54,616.76,383.54z"/>
				<path class="st0" d="M628.29,397.9l1.95-18.41h5.36l-0.26,2.7c1.33-2.12,3.35-3.19,6.08-3.19c1.7,0,3.03,0.46,3.99,1.37
					c0.96,0.91,1.44,2.16,1.44,3.73l-0.11,2.14l-1.24,11.66h-5.4l1.09-10.34l0.11-1.39c0-0.8-0.25-1.45-0.75-1.95
					c-0.5-0.5-1.15-0.75-1.95-0.75c-1.1,0-1.99,0.4-2.66,1.19c-0.67,0.79-1.07,1.92-1.2,3.4l-1.05,9.85H628.29z"/>
				<path class="st0" d="M649.22,397.9l1.95-18.41h5.36l-0.26,2.7c1.33-2.12,3.35-3.19,6.08-3.19c1.7,0,3.03,0.46,3.99,1.37
					s1.44,2.16,1.44,3.73l-0.11,2.14l-1.24,11.66h-5.4l1.09-10.34l0.11-1.39c0-0.8-0.25-1.45-0.75-1.95
					c-0.5-0.5-1.15-0.75-1.95-0.75c-1.1,0-1.99,0.4-2.66,1.19s-1.07,1.92-1.2,3.4l-1.05,9.85H649.22z"/>
				<path class="st0" d="M689.31,390.4h-13.84c0,1.25,0.39,2.25,1.16,3c0.77,0.75,1.76,1.13,2.96,1.13c0.85,0,1.75-0.26,2.7-0.79
					c0.95-0.53,1.79-1.21,2.51-2.06l3.53,2.63l-0.08,0.08c-1.38,1.48-2.76,2.53-4.16,3.15c-1.4,0.63-3.04,0.94-4.91,0.94
					c-2.75,0-4.92-0.76-6.51-2.27c-1.59-1.51-2.38-3.58-2.38-6.21c0-3.02,1.06-5.62,3.17-7.78c2.11-2.16,4.67-3.24,7.67-3.24
					c2.6,0,4.66,0.81,6.17,2.42c1.51,1.61,2.27,3.79,2.27,6.55c0,0.32-0.03,0.71-0.09,1.14
					C689.42,389.51,689.36,389.95,689.31,390.4z M680.65,382.86c-1.15,0-2.14,0.35-2.96,1.05c-0.83,0.7-1.45,1.7-1.88,3h8.55
					c0-1.28-0.33-2.27-0.99-2.98C682.7,383.22,681.8,382.86,680.65,382.86z"/>
				<path class="st0" d="M708.21,380.39l-2.14,4.2c-1.15-0.57-2.27-0.86-3.38-0.86c-1.57,0-2.89,0.55-3.96,1.64
					c-1.06,1.09-1.59,2.43-1.59,4.01c0,1.35,0.41,2.43,1.24,3.24c0.82,0.8,1.92,1.2,3.3,1.2c1.1,0,2.26-0.36,3.49-1.09l1.42,3.79
					l-1.35,0.79c-1.6,0.77-3.29,1.16-5.06,1.16c-2.55,0-4.6-0.79-6.15-2.37c-1.55-1.58-2.32-3.65-2.32-6.2
					c0-3.03,1.07-5.61,3.21-7.72c2.14-2.12,4.73-3.18,7.78-3.18C704.5,379,706.34,379.46,708.21,380.39z"/>
				<path class="st0" d="M707.96,383.95l0.51-4.46l2.72,0l0.45-4.58h5.43l-0.5,4.57l4.53,0l-0.45,4.46l-4.56,0l-0.74,6.83l-0.08,1.5
					c0,0.55,0.19,0.99,0.56,1.31c0.38,0.32,0.89,0.49,1.54,0.49c0.53,0,1.16-0.11,1.91-0.34l0.34,3.97
					c-1.65,0.45-3.13,0.68-4.43,0.68c-1.65,0-2.97-0.43-3.96-1.29c-0.99-0.86-1.48-1.99-1.48-3.39l0.11-2.03l0.81-7.73
					L707.96,383.95z"/>
			</g>
		</g>
		<g>
			<path d="M317.82,311.98v-98.92h20.31v81.08h30.46v17.84H317.82z"/>
			<path d="M373.24,225.54c0-2.74,1.14-5.17,3.43-7.27c2.29-2.1,5.03-3.16,8.23-3.16c3.29,0,6.08,1.01,8.37,3.02
				c2.28,2.01,3.43,4.48,3.43,7.41c0,2.93-1.1,5.4-3.29,7.41c-2.19,2.01-5.03,3.02-8.51,3.02c-3.2,0-5.95-1.01-8.23-3.02
				C374.38,230.94,373.24,228.47,373.24,225.54z M375.16,311.98v-67.36h19.62v67.36H375.16z"/>
			<path d="M407.27,311.98v-67.36h19.76v9.88c1.92-3.75,4.71-6.63,8.37-8.64c3.66-2.01,7.87-3.02,12.62-3.02
				c7.32,0,13.12,2.42,17.42,7.27c1.83,2.19,3.09,4.71,3.77,7.55c0.69,2.84,1.03,6.72,1.03,11.66v42.67h-19.76v-37.83v-6.19
				c-0.46-2.57-1.69-4.68-3.68-6.33c-1.99-1.65-4.37-2.48-7.15-2.48c-3.98,0-7.08,1.47-9.3,4.4c-2.22,2.93-3.33,7.06-3.33,12.38
				v36.04H407.27z"/>
			<path d="M537.19,247.91l-6.17,15.37c-4.58-2.1-8.87-3.16-12.9-3.16c-5.12,0-9.42,1.75-12.9,5.23c-3.48,3.49-5.21,7.9-5.21,13.22
				c0,5.51,1.69,9.96,5.08,13.36c3.38,3.4,7.82,5.1,13.31,5.1c4.12,0,8.28-1.32,12.49-3.98l6.59,13.86l-4.53,2.88
				c-5.4,2.83-11.43,4.25-18.11,4.25c-9.97,0-18.23-3.32-24.76-9.96c-6.54-6.64-9.81-15.05-9.81-25.23
				c0-10.54,3.41-19.18,10.22-25.91c6.81-6.74,15.48-10.1,26-10.1C523.24,242.83,530.15,244.52,537.19,247.91z"/>
			<path d="M541.31,278.43c0-10.41,3.43-18.94,10.29-25.61c6.86-6.66,15.59-10,26.2-10c10.52,0,19.21,3.33,26.07,10
				c6.86,6.66,10.29,15.2,10.29,25.61c0,10.41-3.43,18.94-10.29,25.61c-6.86,6.66-15.55,10-26.07,10c-10.61,0-19.34-3.33-26.2-10
				C544.74,297.38,541.31,288.84,541.31,278.43z M577.8,259.43c-5.12,0-9.38,1.78-12.76,5.33c-3.38,3.55-5.08,8.11-5.08,13.67
				c0,5.47,1.69,9.98,5.08,13.53c3.38,3.55,7.64,5.33,12.76,5.33c5.03,0,9.24-1.78,12.62-5.33c3.38-3.55,5.08-8.06,5.08-13.53
				c0-5.38-1.69-9.89-5.08-13.53C587.04,261.26,582.83,259.43,577.8,259.43z"/>
			<path d="M624.17,311.98v-98.92h19.76v98.92H624.17z"/>
			<path d="M656.55,311.98v-67.36h19.76v9.88c1.92-3.75,4.71-6.63,8.37-8.64c3.66-2.01,7.87-3.02,12.62-3.02
				c7.32,0,13.12,2.42,17.42,7.27c1.83,2.19,3.09,4.71,3.77,7.55c0.69,2.84,1.03,6.72,1.03,11.66v42.67h-19.76v-37.83v-6.19
				c-0.46-2.57-1.69-4.68-3.68-6.33c-1.99-1.65-4.37-2.48-7.15-2.48c-3.98,0-7.08,1.47-9.3,4.4c-2.22,2.93-3.33,7.06-3.33,12.38
				v36.04H656.55z"/>
		</g>
		<g>
			<path d="M349.29,324.71l-2.48,3.62l-1.91-1.34c-2.17-1.31-4.63-1.96-7.39-1.96c-4.24,0-7.78,1.46-10.62,4.37
				c-2.84,2.91-4.26,6.5-4.26,10.77c0,4.31,1.41,7.91,4.24,10.8c2.82,2.89,6.36,4.34,10.59,4.34c1.93,0,3.88-0.4,5.84-1.19
				c1.03-0.41,2.19-1.12,3.46-2.12l2.48,3.72l-1.96,1.19c-3.03,1.72-6.43,2.58-10.18,2.58c-5.41,0-9.94-1.82-13.59-5.48
				c-3.65-3.65-5.48-8.18-5.48-13.59c0-5.62,1.84-10.28,5.53-14c3.69-3.72,8.34-5.58,13.95-5.58c1.07,0,2.15,0.09,3.23,0.26
				c1.09,0.17,2.16,0.41,3.23,0.72c0.89,0.31,1.7,0.66,2.43,1.03C347.12,323.23,348.08,323.85,349.29,324.71z"/>
			<path d="M352.03,346.33c0-3.83,1.27-6.99,3.82-9.48c2.55-2.49,5.77-3.73,9.66-3.73c3.89,0,7.12,1.25,9.69,3.75
				c2.57,2.5,3.85,5.65,3.85,9.45c0,3.8-1.28,6.94-3.82,9.42c-2.55,2.48-5.79,3.73-9.72,3.73c-3.89,0-7.12-1.24-9.66-3.73
				C353.3,353.27,352.03,350.13,352.03,346.33z M365.51,336.95c-2.58,0-4.75,0.89-6.49,2.66c-1.74,1.78-2.61,4.01-2.61,6.69
				c0,2.65,0.86,4.86,2.58,6.61c1.72,1.76,3.89,2.64,6.51,2.64c2.65,0,4.84-0.88,6.56-2.64c1.72-1.76,2.58-3.96,2.58-6.61
				c0-2.65-0.86-4.87-2.58-6.67C370.35,337.85,368.17,336.95,365.51,336.95z"/>
			<path d="M383.65,358.71v-24.96h4.34v4.03c1.03-1.6,2.14-2.77,3.31-3.5c1.17-0.73,2.55-1.1,4.13-1.1c3.38,0,5.72,1.43,7.03,4.29
				c1.69-2.86,4.15-4.29,7.39-4.29c2.82,0,4.98,0.98,6.46,2.95c0.62,0.79,1.03,1.64,1.24,2.56s0.31,2.3,0.31,4.16v15.87h-4.29
				v-15.13v-2.54c-0.21-1.17-0.73-2.11-1.57-2.8c-0.83-0.69-1.88-1.04-3.13-1.04c-1.81,0-3.25,0.62-4.33,1.87
				c-1.08,1.24-1.62,2.92-1.62,5.02v14.61h-4.24v-15.13v-2.38c-0.17-1.21-0.69-2.18-1.54-2.9c-0.85-0.73-1.9-1.09-3.16-1.09
				c-1.84,0-3.3,0.66-4.38,1.97c-1.08,1.31-1.62,3.13-1.62,5.44v14.09H383.65z"/>
			<path d="M423.76,358.71v-24.96h4.34v4.03c1.03-1.6,2.14-2.77,3.31-3.5c1.17-0.73,2.55-1.1,4.13-1.1c3.38,0,5.72,1.43,7.03,4.29
				c1.69-2.86,4.15-4.29,7.39-4.29c2.82,0,4.98,0.98,6.46,2.95c0.62,0.79,1.03,1.64,1.24,2.56s0.31,2.3,0.31,4.16v15.87h-4.29
				v-15.13v-2.54c-0.21-1.17-0.73-2.11-1.57-2.8c-0.83-0.69-1.88-1.04-3.13-1.04c-1.81,0-3.25,0.62-4.33,1.87
				c-1.08,1.24-1.62,2.92-1.62,5.02v14.61h-4.24v-15.13v-2.38c-0.17-1.21-0.69-2.18-1.54-2.9c-0.85-0.73-1.9-1.09-3.16-1.09
				c-1.84,0-3.3,0.66-4.38,1.97c-1.08,1.31-1.62,3.13-1.62,5.44v14.09H423.76z"/>
			<path d="M485.2,333.75v15.07c0,1.59-0.16,2.9-0.47,3.94c-0.59,2-1.81,3.63-3.67,4.87c-1.86,1.24-4.03,1.86-6.51,1.86
				c-2.96,0-5.46-0.86-7.49-2.59c-1.14-0.93-1.96-2.03-2.45-3.29c-0.5-1.26-0.75-2.86-0.75-4.79v-15.07h4.34v14.61
				c0,1.31,0.07,2.24,0.21,2.8c0.72,2.83,2.77,4.25,6.15,4.25c2.03,0,3.63-0.59,4.81-1.76c0.55-0.59,0.95-1.27,1.19-2.05
				c0.24-0.78,0.36-1.86,0.36-3.24v-14.61H485.2z"/>
			<path d="M491.14,358.71v-24.96h4.34v4.13c2-3.2,4.67-4.81,8.01-4.81c2.69,0,4.86,0.86,6.51,2.58c1.45,1.55,2.17,3.98,2.17,7.29
				v15.76h-4.24v-14.73c0-1.21-0.07-2.1-0.21-2.69c-0.21-1.31-0.83-2.38-1.86-3.2c-1.03-0.83-2.27-1.24-3.72-1.24
				c-2.03,0-3.65,0.72-4.86,2.17c-1.21,1.45-1.81,3.39-1.81,5.84v13.85H491.14z"/>
			<path d="M517.4,326.52c0-0.79,0.29-1.48,0.88-2.07c0.58-0.58,1.29-0.88,2.12-0.88c0.83,0,1.53,0.29,2.12,0.88
				c0.58,0.59,0.88,1.28,0.88,2.07c0,0.86-0.29,1.58-0.88,2.17c-0.59,0.59-1.29,0.88-2.12,0.88c-0.83,0-1.53-0.29-2.12-0.88
				C517.69,328.1,517.4,327.38,517.4,326.52z M518.22,358.71V333.8h4.34v24.91H518.22z"/>
			<path d="M524.99,337.47v-3.72h3.72v-6.77h4.24v6.77h6.93v3.72h-6.93v12.78v0.46c0,1.24,0.02,2.01,0.05,2.32
				c0.03,0.31,0.16,0.64,0.36,0.98c0.48,0.93,1.46,1.39,2.95,1.39c0.9,0,1.88-0.21,2.95-0.62l1.09,3.81
				c-1.72,0.49-3.32,0.73-4.81,0.73c-2.65,0-4.62-0.95-5.89-2.84c-0.24-0.34-0.45-0.77-0.62-1.27c-0.17-0.5-0.28-0.97-0.31-1.42
				v-3.31v-13.02H524.99z"/>
			<path d="M537.28,333.75l4.65,0.01l6.53,16.42c0.17,0.45,0.36,1,0.58,1.66c0.22,0.66,0.41,1.48,0.58,2.48
				c0.2-1.42,0.61-2.85,1.22-4.31l6.5-16.26h4.75l-11.11,26.87c-1.17,2.82-2.12,4.7-2.84,5.63c-1.41,1.79-3.55,2.69-6.41,2.69
				c-1.14,0-2.38-0.19-3.72-0.57l1.09-3.98c0.9,0.31,1.74,0.46,2.53,0.46c1.72,0,3.01-0.72,3.88-2.17c0.14-0.28,0.37-0.77,0.7-1.5
				c0.33-0.72,0.72-1.64,1.16-2.74L537.28,333.75z"/>
			<path d="M575.22,351.75l3.62-2.39c2.14,4,5.08,5.99,8.84,5.99c2.07,0,3.82-0.66,5.25-1.99c1.43-1.33,2.15-2.96,2.15-4.89
				c0-1.69-0.64-3.03-1.91-4.04c-1.03-0.76-3.05-1.78-6.05-3.05c-2.24-0.93-3.51-1.47-3.82-1.6c-1.03-0.48-2.01-1.14-2.95-1.97
				c-1.93-1.76-2.89-4-2.89-6.73c0-2.97,1.03-5.41,3.08-7.32c2.05-1.91,4.64-2.87,7.78-2.87c2.65,0,4.96,0.71,6.93,2.12
				c0.83,0.62,1.5,1.22,2.02,1.81c0.52,0.59,1.07,1.41,1.65,2.48l-3.82,1.96c-1.38-2.96-3.64-4.44-6.77-4.44
				c-1.76,0-3.23,0.56-4.42,1.68c-1.19,1.12-1.78,2.49-1.78,4.12c0,1.38,0.47,2.57,1.4,3.57c0.52,0.55,1.11,1.01,1.78,1.37
				c0.67,0.36,2.06,0.96,4.16,1.79c3.03,1.21,5.25,2.36,6.67,3.47c2.38,1.76,3.57,4.19,3.57,7.3c0,3.35-1.15,6.08-3.44,8.2
				c-2.29,2.12-5.26,3.18-8.92,3.18C581.87,359.49,577.84,356.91,575.22,351.75z"/>
			<path d="M623.96,334.78l-1.34,4.03c-1.1-0.62-2.1-1.05-3-1.29c-0.9-0.24-1.88-0.36-2.95-0.36c-2.62,0-4.8,0.89-6.54,2.66
				c-1.74,1.77-2.61,4.01-2.61,6.69c0,2.62,0.84,4.77,2.53,6.46c1.69,1.69,3.86,2.53,6.51,2.53c0.93,0,1.98-0.14,3.15-0.41
				c0.52-0.21,0.93-0.38,1.24-0.52c0.31-0.14,0.84-0.41,1.6-0.83l1.55,3.77l-1.65,0.77c-0.93,0.45-1.92,0.78-2.97,0.98
				c-1.05,0.21-2.16,0.31-3.33,0.31c-3.82,0-6.97-1.23-9.43-3.69c-2.46-2.46-3.69-5.59-3.69-9.38c0-3.89,1.29-7.1,3.88-9.61
				c2.58-2.51,5.87-3.77,9.87-3.77c1.52,0,2.75,0.1,3.69,0.31C621.42,333.65,622.58,334.1,623.96,334.78z"/>
			<path d="M627.78,358.71v-37.26h4.34v15.81c2.1-2.76,4.77-4.13,8.01-4.13c3.07,0,5.39,1,6.98,3c0.62,0.83,1.07,1.77,1.34,2.84
				c0.28,1.07,0.41,2.45,0.41,4.13v15.61h-4.5v-14.88l-0.16-2.58c-0.24-1.27-0.86-2.29-1.86-3.05c-1-0.76-2.19-1.14-3.57-1.14
				c-2.1,0-3.82,0.84-5.17,2.53c-1,1.34-1.5,3.29-1.5,5.84v13.28H627.78z"/>
			<path d="M653.52,346.33c0-3.83,1.27-6.99,3.82-9.48c2.55-2.49,5.77-3.73,9.66-3.73c3.89,0,7.12,1.25,9.69,3.75
				c2.57,2.5,3.85,5.65,3.85,9.45c0,3.8-1.28,6.94-3.82,9.42c-2.55,2.48-5.79,3.73-9.72,3.73c-3.89,0-7.12-1.24-9.66-3.73
				C654.79,353.27,653.52,350.13,653.52,346.33z M667,336.95c-2.58,0-4.75,0.89-6.49,2.66c-1.74,1.78-2.61,4.01-2.61,6.69
				c0,2.65,0.86,4.86,2.58,6.61c1.72,1.76,3.89,2.64,6.51,2.64c2.65,0,4.84-0.88,6.56-2.64c1.72-1.76,2.58-3.96,2.58-6.61
				c0-2.65-0.86-4.87-2.58-6.67C671.84,337.85,669.66,336.95,667,336.95z"/>
			<path d="M683.85,346.33c0-3.83,1.27-6.99,3.82-9.48c2.55-2.49,5.77-3.73,9.66-3.73c3.89,0,7.12,1.25,9.69,3.75
				c2.57,2.5,3.85,5.65,3.85,9.45c0,3.8-1.28,6.94-3.82,9.42c-2.55,2.48-5.79,3.73-9.72,3.73c-3.89,0-7.12-1.24-9.66-3.73
				C685.13,353.27,683.85,350.13,683.85,346.33z M697.34,336.95c-2.58,0-4.75,0.89-6.49,2.66c-1.74,1.78-2.61,4.01-2.61,6.69
				c0,2.65,0.86,4.86,2.58,6.61c1.72,1.76,3.89,2.64,6.51,2.64c2.65,0,4.84-0.88,6.56-2.64c1.72-1.76,2.58-3.96,2.58-6.61
				c0-2.65-0.86-4.87-2.58-6.67C702.18,337.85,699.99,336.95,697.34,336.95z"/>
			<path d="M715.48,358.71v-37.26h4.34v37.26H715.48z"/>
		</g>
	</g>
</g>
</svg>
